<svg width="21" height="20" viewBox="0 0 21 20" fill="none" xmlns="http://www.w3.org/2000/svg">
<circle cx="11" cy="10" r="10" fill="#00B7A8"/>
<g clip-path="url(#clip0_1_2143)">
<path d="M13.7158 16.9971H9.89497C9.26497 16.9971 8.64664 16.7346 8.20914 16.2796L3.95081 11.8404L5.15831 10.7729C5.51997 10.4521 6.05081 10.3879 6.47664 10.6154L7.88247 11.3621V5.79126C7.88247 4.98626 8.53581 4.33293 9.34081 4.33293C9.43997 4.33293 9.53914 4.3446 9.63831 4.3621C9.69081 3.60376 10.3208 3.00293 11.0908 3.00293C11.5925 3.00293 12.03 3.25376 12.2925 3.63876C12.4616 3.56876 12.6483 3.53376 12.8408 3.53376C13.6458 3.53376 14.2991 4.1871 14.2991 4.9921V5.15543C14.3925 5.13793 14.4916 5.12626 14.5908 5.12626C15.3958 5.12626 16.0491 5.7796 16.0491 6.5846V14.6638C16.0491 15.9529 15.005 16.9971 13.7158 16.9971ZM5.63081 11.9104L9.04914 15.4688C9.27081 15.6963 9.57414 15.8304 9.88914 15.8304H13.7158C14.3575 15.8304 14.8825 15.3054 14.8825 14.6638V6.5846C14.8825 6.42126 14.7541 6.29293 14.5908 6.29293C14.4275 6.29293 14.2991 6.42126 14.2991 6.5846V9.9971H13.1325V4.9921C13.1325 4.82876 13.0041 4.70043 12.8408 4.70043C12.6775 4.70043 12.5491 4.82876 12.5491 4.9921V9.9971H11.3825V4.46126C11.3825 4.29793 11.2541 4.1696 11.0908 4.1696C10.9275 4.1696 10.7991 4.29793 10.7991 4.46126V9.9971H9.63247V5.79126C9.63247 5.62793 9.50414 5.4996 9.34081 5.4996C9.17747 5.4996 9.04914 5.63376 9.04914 5.79126V13.2988L5.92831 11.6479L5.63081 11.9104Z" fill="white"/>
</g>
<defs>
<clipPath id="clip0_1_2143">
<rect width="14" height="14" fill="white" transform="translate(3 3)"/>
</clipPath>
</defs>
</svg>
