<svg width="683" height="232" viewBox="0 0 683 232" fill="none" xmlns="http://www.w3.org/2000/svg">
    <path d="M401.539 97.5344C401.473 68.8062 384.126 42.9402 357.573 31.9743C331.02 21.0085 300.477 27.0971 280.159 47.4066C254.145 73.9687 252.984 116.086 277.494 144.041C302.004 171.996 343.911 176.352 373.647 154.036L384.603 164.992L382.598 166.997C381.888 167.703 381.488 168.663 381.488 169.665C381.488 170.666 381.888 171.626 382.598 172.332L440.424 229.979C441.13 230.69 442.09 231.089 443.092 231.089C444.093 231.089 445.053 230.69 445.759 229.979L463.053 212.685C463.764 211.979 464.164 211.019 464.164 210.018C464.164 209.016 463.764 208.056 463.053 207.35L405.406 149.703C404.701 148.992 403.74 148.593 402.739 148.593C401.737 148.593 400.777 148.992 400.071 149.703L398.066 151.708L387.11 140.752C396.565 128.337 401.64 113.139 401.539 97.5344Z" fill="#004A94"/>
    <path d="M293.622 134.521C273.21 114.105 273.213 81.008 293.628 60.5949C314.042 40.1817 347.139 40.1817 367.554 60.5949C387.969 81.008 387.972 114.105 367.56 134.521C347.128 154.903 314.054 154.903 293.622 134.521Z" fill="#E3EAF1" stroke="#B5BEC6"/>
    <path d="M318.041 116.13C318.041 116.13 328.783 108.156 338.808 116.13" stroke="#004A94" stroke-width="2"/>
    <path d="M311.811 88.4773L310.556 87.2224L305.581 92.1976L300.605 87.2224L299.351 88.4773L304.326 93.4526L299.351 98.4278L300.605 99.6827L305.581 94.7075L310.556 99.6827L311.811 98.4278L306.836 93.4526L311.811 88.4773Z" fill="#004A94" stroke="#004A94"/>
    <path d="M359.575 88.4773L358.32 87.2224L353.345 92.1976L348.37 87.2224L347.115 88.4773L352.09 93.4526L347.115 98.4278L348.37 99.6827L353.345 94.7075L358.32 99.6827L359.575 98.4278L354.6 93.4526L359.575 88.4773Z" fill="#004A94" stroke="#004A94"/>
    <circle cx="224.588" cy="6.23017" r="6.23017" fill="#E3EAF1"/>
    <circle cx="274.429" cy="176.521" r="6.23017" fill="#E3EAF1"/>
    <circle cx="432.26" cy="6.23017" r="6.23017" fill="#E3EAF1"/>
    <g opacity="0.2">
        <path fill-rule="evenodd" clip-rule="evenodd" d="M1.98169 142.255C1.07151 142.78 0.825369 144.163 1.26627 144.925L41.3348 214.326C41.8466 215.212 43.1184 215.553 44.0047 215.041L98.1712 183.768C99.0574 183.256 99.3982 181.984 98.8866 181.098L67.6136 126.932C67.3534 126.481 66.9122 126.137 66.4087 126.005L42.3789 119.566C41.888 119.444 41.3501 119.521 40.9138 119.777L1.98169 142.255ZM5.62878 144.663L41.1755 124.14L48.9937 137.682C49.5055 138.568 50.7774 138.909 51.6637 138.397L65.2053 130.579L94.5237 181.36L43.7427 210.678L5.62878 144.663ZM60.8711 128.568L45.9359 124.566L51.4025 134.034L60.8711 128.568Z" fill="#004A94"/>
        <path d="M34.8773 179.686C33.9424 180.226 33.6221 181.421 34.1619 182.356C34.7016 183.291 35.897 183.611 36.8319 183.071L67.3005 165.48C68.2354 164.941 68.5556 163.745 68.0159 162.81C67.4761 161.876 66.2808 161.555 65.3459 162.095L34.8773 179.686Z" fill="#004A94"/>
        <path d="M42.6953 193.228C41.7604 193.767 41.4402 194.963 41.9799 195.898C42.5197 196.832 43.715 197.153 44.6499 196.613L81.8893 175.113C82.8242 174.573 83.1445 173.378 82.6047 172.443C82.065 171.508 80.8696 171.188 79.9347 171.727L42.6953 193.228Z" fill="#004A94"/>
        <path fill-rule="evenodd" clip-rule="evenodd" d="M104.555 76.5061C103.539 76.7781 102.944 78.0497 103.172 78.8999L123.913 156.306C124.178 157.295 125.319 157.953 126.307 157.688L186.722 141.5C187.711 141.235 188.369 140.095 188.104 139.106L171.916 78.6917C171.781 78.1891 171.444 77.7426 170.992 77.4849L149.447 65.0462C149.005 64.8005 148.465 64.7361 147.978 64.8709L104.555 76.5061ZM107.454 79.7761L147.102 69.1527L151.149 84.2564C151.414 85.2449 152.554 85.9033 153.543 85.6385L168.646 81.5914L183.823 138.23L127.184 153.407L107.454 79.7761ZM164.98 78.5269L151.589 70.7959L154.419 81.3567L164.98 78.5269Z" fill="#004A94"/>
        <path d="M126.642 121.176C125.599 121.455 124.98 122.527 125.259 123.57C125.539 124.612 126.611 125.231 127.653 124.952L161.637 115.846C162.679 115.567 163.298 114.495 163.019 113.452C162.739 112.409 161.668 111.791 160.625 112.07L126.642 121.176Z" fill="#004A94"/>
        <path d="M130.688 136.279C129.645 136.559 129.027 137.631 129.306 138.673C129.585 139.716 130.657 140.335 131.7 140.055L173.235 128.926C174.278 128.647 174.897 127.575 174.617 126.532C174.338 125.489 173.266 124.871 172.223 125.15L130.688 136.279Z" fill="#004A94"/>
    </g>
    <g opacity="0.2">
        <path fill-rule="evenodd" clip-rule="evenodd" d="M680.366 142.255C681.276 142.78 681.522 144.163 681.081 144.925L641.013 214.326C640.501 215.212 639.229 215.553 638.343 215.041L584.177 183.768C583.29 183.256 582.949 181.984 583.461 181.098L614.734 126.932C614.994 126.481 615.435 126.137 615.939 126.005L639.969 119.566C640.46 119.443 640.998 119.521 641.434 119.777L680.366 142.255ZM676.719 144.663L641.172 124.14L633.354 137.682C632.842 138.568 631.57 138.909 630.684 138.397L617.142 130.579L587.824 181.36L638.605 210.678L676.719 144.663ZM621.477 128.568L636.412 124.566L630.945 134.034L621.477 128.568Z" fill="#004A94"/>
        <path d="M647.47 179.686C648.405 180.226 648.726 181.421 648.186 182.356C647.646 183.291 646.451 183.611 645.516 183.071L615.047 165.48C614.112 164.941 613.792 163.745 614.332 162.81C614.872 161.876 616.067 161.555 617.002 162.095L647.47 179.686Z" fill="#004A94"/>
        <path d="M639.652 193.228C640.587 193.767 640.908 194.963 640.368 195.898C639.828 196.832 638.633 197.153 637.698 196.613L600.458 175.113C599.523 174.573 599.203 173.378 599.743 172.443C600.283 171.508 601.478 171.188 602.413 171.727L639.652 193.228Z" fill="#004A94"/>
        <path fill-rule="evenodd" clip-rule="evenodd" d="M577.793 76.5061C578.808 76.7781 579.404 78.0497 579.175 78.8999L558.434 156.306C558.169 157.295 557.029 157.953 556.04 157.688L495.626 141.5C494.637 141.235 493.979 140.095 494.244 139.106L510.432 78.6917C510.566 78.1891 510.903 77.7426 511.356 77.4849L532.9 65.0462C533.342 64.8005 533.882 64.7361 534.37 64.8709L577.793 76.5061ZM574.893 79.7761L535.246 69.1527L531.199 84.2564C530.934 85.2449 529.794 85.9033 528.805 85.6385L513.701 81.5914L498.525 138.23L555.164 153.407L574.893 79.7761ZM517.368 78.5269L530.759 70.7959L527.929 81.3567L517.368 78.5269Z" fill="#004A94"/>
        <path d="M555.706 121.176C556.749 121.455 557.368 122.527 557.088 123.57C556.809 124.612 555.737 125.231 554.694 124.952L520.711 115.846C519.668 115.567 519.05 114.495 519.329 113.452C519.608 112.409 520.68 111.791 521.723 112.07L555.706 121.176Z" fill="#004A94"/>
        <path d="M551.66 136.279C552.702 136.559 553.321 137.631 553.042 138.673C552.762 139.716 551.691 140.335 550.648 140.055L509.113 128.926C508.07 128.647 507.451 127.575 507.731 126.532C508.01 125.489 509.082 124.871 510.124 125.15L551.66 136.279Z" fill="#004A94"/>
    </g>
</svg>
