<svg width="20" height="20" viewBox="0 0 20 20" fill="none" xmlns="http://www.w3.org/2000/svg">
<circle cx="10" cy="10" r="10" fill="#04C3DE"/>
<path d="M8.99996 8.83333C10.4733 8.83333 11.6666 7.64 11.6666 6.16667C11.6666 4.69333 10.4733 3.5 8.99996 3.5C7.52663 3.5 6.33329 4.69333 6.33329 6.16667C6.33329 7.64 7.52663 8.83333 8.99996 8.83333ZM8.99996 4.83333C9.73329 4.83333 10.3333 5.43333 10.3333 6.16667C10.3333 6.9 9.73329 7.5 8.99996 7.5C8.26663 7.5 7.66663 6.9 7.66663 6.16667C7.66663 5.43333 8.26663 4.83333 8.99996 4.83333ZM4.99996 12.8333C5.13329 12.4133 6.71329 11.7133 8.30663 11.54L9.66663 10.2067C9.40663 10.18 9.21329 10.1667 8.99996 10.1667C7.21996 10.1667 3.66663 11.06 3.66663 12.8333V14.1667H9.66663L8.33329 12.8333H4.99996ZM15.4 9.16667L11.98 12.6133L10.6 11.2267L9.66663 12.1667L11.98 14.5L16.3333 10.1067L15.4 9.16667Z" fill="white"/>
</svg>
