<svg width="20" height="20" viewBox="0 0 20 20" fill="none" xmlns="http://www.w3.org/2000/svg">
<circle cx="10" cy="10" r="10" fill="#44B35A"/>
<path d="M16.6666 8.32667H13.4733L10.5533 3.95334C10.4266 3.76667 10.2133 3.67334 9.99996 3.67334C9.78663 3.67334 9.57329 3.76667 9.44663 3.96001L6.52663 8.32667H3.33329C2.96663 8.32667 2.66663 8.62667 2.66663 8.99334C2.66663 9.05334 2.67329 9.11334 2.69329 9.17334L4.38663 15.3533C4.53996 15.9133 5.05329 16.3267 5.66663 16.3267H14.3333C14.9466 16.3267 15.46 15.9133 15.62 15.3533L17.3133 9.17334L17.3333 8.99334C17.3333 8.62667 17.0333 8.32667 16.6666 8.32667ZM9.99996 5.52667L11.8666 8.32667H8.13329L9.99996 5.52667ZM14.3333 14.9933L5.67329 15L4.20663 9.66001H15.8L14.3333 14.9933ZM9.99996 10.9933C9.26663 10.9933 8.66663 11.5933 8.66663 12.3267C8.66663 13.06 9.26663 13.66 9.99996 13.66C10.7333 13.66 11.3333 13.06 11.3333 12.3267C11.3333 11.5933 10.7333 10.9933 9.99996 10.9933Z" fill="white"/>
</svg>
