<svg width="20" height="20" viewBox="0 0 20 20" fill="none" xmlns="http://www.w3.org/2000/svg">
<circle cx="10" cy="10" r="10" fill="#E02020"/>
<path d="M14.0834 7.37508C14.4055 7.37508 14.6667 7.11391 14.6667 6.79175C14.6667 6.46958 14.4055 6.20841 14.0834 6.20841C13.7612 6.20841 13.5 6.46958 13.5 6.79175C13.5 7.11391 13.7612 7.37508 14.0834 7.37508Z" fill="white"/>
<path d="M11.75 7.37508C12.0722 7.37508 12.3334 7.11391 12.3334 6.79175C12.3334 6.46958 12.0722 6.20841 11.75 6.20841C11.4279 6.20841 11.1667 6.46958 11.1667 6.79175C11.1667 7.11391 11.4279 7.37508 11.75 7.37508Z" fill="white"/>
<path d="M12.9109 8.25008C12.1059 8.25008 11.4525 8.74008 11.4525 9.34675H14.3692C14.3692 8.74008 13.7159 8.25008 12.9109 8.25008Z" fill="white"/>
<path d="M3.58337 12.3334C3.58337 14.2642 5.15254 15.8334 7.08337 15.8334C9.01421 15.8334 10.5834 14.2642 10.5834 12.3334V8.25008H3.58337V12.3334ZM4.75004 9.41675H9.41671V12.3334C9.41671 13.6226 8.37254 14.6667 7.08337 14.6667C5.79421 14.6667 4.75004 13.6226 4.75004 12.3334V9.41675Z" fill="white"/>
<path d="M9.41671 4.16675V7.37508H10.5834V5.33341H15.25V8.25008C15.25 9.53925 14.2059 10.5834 12.9167 10.5834C12.3625 10.5834 11.8609 10.3792 11.4584 10.0584V11.4292C11.9017 11.6334 12.3975 11.7501 12.9167 11.7501C14.8475 11.7501 16.4167 10.1809 16.4167 8.25008V4.16675H9.41671Z" fill="white"/>
<path d="M5.91671 11.4584C6.23887 11.4584 6.50004 11.1972 6.50004 10.8751C6.50004 10.5529 6.23887 10.2917 5.91671 10.2917C5.59454 10.2917 5.33337 10.5529 5.33337 10.8751C5.33337 11.1972 5.59454 11.4584 5.91671 11.4584Z" fill="white"/>
<path d="M8.25004 11.4584C8.57221 11.4584 8.83337 11.1972 8.83337 10.8751C8.83337 10.5529 8.57221 10.2917 8.25004 10.2917C7.92788 10.2917 7.66671 10.5529 7.66671 10.8751C7.66671 11.1972 7.92788 11.4584 8.25004 11.4584Z" fill="white"/>
<path d="M7.08337 13.4301C7.88837 13.4301 8.54171 12.9401 8.54171 12.3334H5.62504C5.62504 12.9401 6.27837 13.4301 7.08337 13.4301Z" fill="white"/>
</svg>
