<svg width="21" height="20" viewBox="0 0 21 20" fill="none" xmlns="http://www.w3.org/2000/svg">
<circle cx="11" cy="10" r="10" fill="#4C9AF0"/>
<path d="M13.9166 4.16675H8.08329C7.44163 4.16675 6.91663 4.69175 6.91663 5.33341V6.50008C6.91663 7.14175 7.44163 7.66675 8.08329 7.66675H13.9166C14.5583 7.66675 15.0833 7.14175 15.0833 6.50008V5.33341C15.0833 4.69175 14.5583 4.16675 13.9166 4.16675ZM13.9166 6.50008H8.08329V5.33341H13.9166V6.50008ZM15.6666 15.8334H6.33329C5.69163 15.8334 5.16663 15.3084 5.16663 14.6667V14.0834H16.8333V14.6667C16.8333 15.3084 16.3083 15.8334 15.6666 15.8334ZM14.8091 8.94425C14.6225 8.52425 14.2025 8.25008 13.7416 8.25008H8.25829C7.79746 8.25008 7.37746 8.52425 7.19079 8.94425L5.16663 13.5001H16.8333L14.8091 8.94425ZM9.54163 12.3334H8.95829C8.79496 12.3334 8.66663 12.2051 8.66663 12.0417C8.66663 11.8784 8.79496 11.7501 8.95829 11.7501H9.54163C9.70496 11.7501 9.83329 11.8784 9.83329 12.0417C9.83329 12.2051 9.70496 12.3334 9.54163 12.3334ZM9.54163 11.1667H8.95829C8.79496 11.1667 8.66663 11.0384 8.66663 10.8751C8.66663 10.7117 8.79496 10.5834 8.95829 10.5834H9.54163C9.70496 10.5834 9.83329 10.7117 9.83329 10.8751C9.83329 11.0384 9.70496 11.1667 9.54163 11.1667ZM9.54163 10.0001H8.95829C8.79496 10.0001 8.66663 9.87175 8.66663 9.70841C8.66663 9.54508 8.79496 9.41675 8.95829 9.41675H9.54163C9.70496 9.41675 9.83329 9.54508 9.83329 9.70841C9.83329 9.87175 9.70496 10.0001 9.54163 10.0001ZM11.2916 12.3334H10.7083C10.545 12.3334 10.4166 12.2051 10.4166 12.0417C10.4166 11.8784 10.545 11.7501 10.7083 11.7501H11.2916C11.455 11.7501 11.5833 11.8784 11.5833 12.0417C11.5833 12.2051 11.455 12.3334 11.2916 12.3334ZM11.2916 11.1667H10.7083C10.545 11.1667 10.4166 11.0384 10.4166 10.8751C10.4166 10.7117 10.545 10.5834 10.7083 10.5834H11.2916C11.455 10.5834 11.5833 10.7117 11.5833 10.8751C11.5833 11.0384 11.455 11.1667 11.2916 11.1667ZM11.2916 10.0001H10.7083C10.545 10.0001 10.4166 9.87175 10.4166 9.70841C10.4166 9.54508 10.545 9.41675 10.7083 9.41675H11.2916C11.455 9.41675 11.5833 9.54508 11.5833 9.70841C11.5833 9.87175 11.455 10.0001 11.2916 10.0001ZM13.0416 12.3334H12.4583C12.295 12.3334 12.1666 12.2051 12.1666 12.0417C12.1666 11.8784 12.295 11.7501 12.4583 11.7501H13.0416C13.205 11.7501 13.3333 11.8784 13.3333 12.0417C13.3333 12.2051 13.205 12.3334 13.0416 12.3334ZM13.0416 11.1667H12.4583C12.295 11.1667 12.1666 11.0384 12.1666 10.8751C12.1666 10.7117 12.295 10.5834 12.4583 10.5834H13.0416C13.205 10.5834 13.3333 10.7117 13.3333 10.8751C13.3333 11.0384 13.205 11.1667 13.0416 11.1667ZM13.0416 10.0001H12.4583C12.295 10.0001 12.1666 9.87175 12.1666 9.70841C12.1666 9.54508 12.295 9.41675 12.4583 9.41675H13.0416C13.205 9.41675 13.3333 9.54508 13.3333 9.70841C13.3333 9.87175 13.205 10.0001 13.0416 10.0001Z" fill="white"/>
</svg>
