<svg width="21" height="20" viewBox="0 0 21 20" fill="none" xmlns="http://www.w3.org/2000/svg">
<circle cx="11" cy="10" r="10" fill="#FEBD38"/>
<path d="M16.3333 6.66675H17.6666V10.0001H16.3333V6.66675ZM9.66659 4.66675C6.71992 4.66675 4.33325 7.05341 4.33325 10.0001C4.33325 12.9467 6.71992 15.3334 9.66659 15.3334C12.6133 15.3334 14.9999 12.9467 14.9999 10.0001C14.9999 7.05341 12.6133 4.66675 9.66659 4.66675ZM9.66659 14.0001C7.45992 14.0001 5.66659 12.2067 5.66659 10.0001C5.66659 7.79341 7.45992 6.00008 9.66659 6.00008C11.8733 6.00008 13.6666 7.79341 13.6666 10.0001C13.6666 12.2067 11.8733 14.0001 9.66659 14.0001ZM16.3333 11.3334H17.6666V12.6667H16.3333V11.3334ZM9.66659 8.66675C8.93325 8.66675 8.33325 9.26675 8.33325 10.0001C8.33325 10.7334 8.93325 11.3334 9.66659 11.3334C10.3999 11.3334 10.9999 10.7334 10.9999 10.0001C10.9999 9.26675 10.3999 8.66675 9.66659 8.66675Z" fill="white"/>
</svg>
