<svg width="20" height="20" viewBox="0 0 20 20" fill="none" xmlns="http://www.w3.org/2000/svg">
<circle cx="10" cy="10" r="10" fill="#A46CFA"/>
<path d="M13.5 12.5V9.5C13.5 8.95 13.05 8.5 12.5 8.5H7V7.5L5.5 9L7 10.5V9.5H9V11H5.5V12.5C5.5 13.05 5.95 13.5 6.5 13.5H7.5C7.5 14.33 8.17 15 9 15C9.83 15 10.5 14.33 10.5 13.5H14.5V12.5H13.5ZM9 14C8.725 14 8.5 13.775 8.5 13.5C8.5 13.225 8.725 13 9 13C9.275 13 9.5 13.225 9.5 13.5C9.5 13.775 9.275 14 9 14ZM12.5 11H10.5V9.5H12.5V11ZM12 5V6H8V7H12V8L13.5 6.5L12 5Z" fill="white"/>
</svg>
